<?xml version="1.0" encoding="UTF-8"?>
<svg id="Layer_1" xmlns="http://www.w3.org/2000/svg" xmlns:xlink="http://www.w3.org/1999/xlink" version="1.1" viewBox="0 0 800 70">
  <!-- Generator: Adobe Illustrator 29.6.0, SVG Export Plug-In . SVG Version: 2.1.1 Build 207)  -->
  <defs>
    <style>
      .st0, .st1, .st2, .st3, .st4, .st5, .st6, .st7, .st8, .st9, .st10, .st11, .st12, .st13, .st14, .st15, .st16, .st17, .st18, .st19, .st20, .st21, .st22, .st23, .st24, .st25, .st26, .st27, .st28, .st29, .st30, .st31, .st32, .st33, .st34, .st35, .st36 {
        fill: none;
      }

      .st37 {
        mask: url(#mask);
      }

      .st1 {
        stroke: url(#linear-gradient28);
      }

      .st1, .st2, .st3, .st4, .st5, .st6, .st7, .st8, .st9, .st10, .st11, .st12, .st13, .st14, .st15, .st16, .st17, .st18, .st19, .st20, .st21, .st22, .st23, .st24, .st25, .st26, .st27, .st28, .st29, .st30, .st31, .st32, .st33, .st34, .st35, .st36 {
        stroke-miterlimit: 10;
      }

      .st1, .st2, .st3, .st4, .st33, .st34 {
        opacity: 0;
      }

      .st1, .st2, .st3, .st4, .st34 {
        stroke-width: 18px;
      }

      .st2 {
        stroke: url(#linear-gradient18);
      }

      .st3 {
        stroke: url(#linear-gradient13);
      }

      .st4 {
        stroke: url(#linear-gradient23);
      }

      .st5 {
        stroke: url(#linear-gradient19);
      }

      .st5, .st6, .st7, .st8, .st35 {
        stroke-width: 16px;
      }

      .st5, .st6, .st7, .st8, .st35, .st36 {
        opacity: .1;
      }

      .st6 {
        stroke: url(#linear-gradient14);
      }

      .st7 {
        stroke: url(#linear-gradient29);
      }

      .st8 {
        stroke: url(#linear-gradient24);
      }

      .st9 {
        stroke: url(#linear-gradient27);
      }

      .st9, .st10, .st11, .st12, .st31, .st32 {
        opacity: 0;
        stroke-width: 20px;
      }

      .st10 {
        stroke: url(#linear-gradient17);
      }

      .st11 {
        stroke: url(#linear-gradient12);
      }

      .st12 {
        stroke: url(#linear-gradient22);
      }

      .st13 {
        stroke: url(#linear-gradient15);
      }

      .st13, .st14, .st15, .st16, .st17, .st29 {
        opacity: .2;
      }

      .st13, .st14, .st15, .st16, .st17, .st36 {
        stroke-width: 12px;
      }

      .st14 {
        stroke: url(#linear-gradient10);
      }

      .st15 {
        stroke: url(#linear-gradient20);
      }

      .st16 {
        stroke: url(#linear-gradient25);
      }

      .st17 {
        stroke: url(#linear-gradient30);
      }

      .st18, .st19, .st22, .st23, .st24, .st30 {
        stroke: #fff;
      }

      .st38 {
        fill: #d9d9d9;
      }

      .st39 {
        fill: url(#radial-gradient);
      }

      .st40 {
        fill: url(#linear-gradient);
      }

      .st19, .st41, .st42, .st43, .st44, .st45, .st46, .st47 {
        display: none;
      }

      .st20 {
        stroke: url(#linear-gradient1);
      }

      .st20, .st21, .st25, .st26, .st27, .st28 {
        opacity: 0;
        stroke-width: 24px;
      }

      .st21 {
        stroke: url(#linear-gradient6);
      }

      .st41 {
        opacity: .7;
      }

      .st42 {
        opacity: .8;
      }

      .st43 {
        opacity: .4;
      }

      .st44 {
        opacity: .6;
      }

      .st45 {
        opacity: .3;
      }

      .st46 {
        opacity: .2;
      }

      .st47 {
        opacity: 0;
      }

      .st48 {
        mask: url(#mask-2);
      }

      .st49 {
        mask: url(#mask-3);
      }

      .st50 {
        mask: url(#mask-4);
      }

      .st51 {
        mask: url(#mask-5);
      }

      .st52 {
        mask: url(#mask-7);
      }

      .st53 {
        mask: url(#mask-6);
      }

      .st54 {
        mask: url(#mask-1);
      }

      .st55 {
        mask: url(#mask-9);
      }

      .st56 {
        mask: url(#mask-8);
      }

      .st57 {
        clip-path: url(#clippath-1);
      }

      .st58 {
        clip-path: url(#clippath-3);
      }

      .st59 {
        clip-path: url(#clippath-4);
      }

      .st60 {
        clip-path: url(#clippath-2);
      }

      .st61 {
        clip-path: url(#clippath-6);
      }

      .st62 {
        clip-path: url(#clippath-5);
      }

      .st22 {
        opacity: .5;
        stroke-width: 3px;
      }

      .st63 {
        fill: #fff;
      }

      .st23 {
        opacity: .2;
        stroke-width: 5px;
      }

      .st24 {
        stroke-width: 2px;
      }

      .st24, .st64 {
        opacity: .8;
      }

      .st25 {
        stroke: url(#linear-gradient21);
      }

      .st26 {
        stroke: url(#linear-gradient16);
      }

      .st27 {
        stroke: url(#linear-gradient11);
      }

      .st28 {
        stroke: url(#linear-gradient26);
      }

      .st29 {
        stroke: url(#linear-gradient5);
        stroke-width: 10px;
      }

      .st30 {
        stroke-width: 7px;
      }

      .st30, .st65 {
        opacity: .1;
      }

      .st31 {
        stroke: url(#linear-gradient2);
      }

      .st32 {
        stroke: url(#linear-gradient7);
      }

      .st66 {
        opacity: .8;
      }

      .st67 {
        opacity: .5;
      }

      .st68 {
        opacity: .6;
      }

      .st69 {
        opacity: .3;
      }

      .st70 {
        fill: url(#radial-gradient1);
      }

      .st71 {
        fill: url(#radial-gradient6);
      }

      .st72 {
        fill: url(#radial-gradient3);
      }

      .st73 {
        fill: url(#radial-gradient2);
      }

      .st74 {
        fill: url(#radial-gradient5);
      }

      .st75 {
        fill: url(#radial-gradient4);
      }

      .st33 {
        stroke: url(#linear-gradient3);
        stroke-width: 14px;
      }

      .st34 {
        stroke: url(#linear-gradient8);
      }

      .st35 {
        stroke: url(#linear-gradient9);
      }

      .st36 {
        stroke: url(#linear-gradient4);
      }

      .st76 {
        mask: url(#mask-10);
      }

      .st77 {
        mask: url(#mask-11);
      }

      .st78 {
        mask: url(#mask-13);
      }

      .st79 {
        mask: url(#mask-12);
      }

      .st80 {
        clip-path: url(#clippath);
      }
    </style>
    <clipPath id="clippath">
      <rect class="st0" width="800" height="70"/>
    </clipPath>
    <linearGradient id="linear-gradient" x1="674.8" y1="37" x2="-.1" y2="37" gradientTransform="translate(0 72) scale(1 -1)" gradientUnits="userSpaceOnUse">
      <stop offset="0" stop-color="#101921"/>
      <stop offset="1" stop-color="#0080ff"/>
    </linearGradient>
    <mask id="mask" x="-144.4" y="-142.7" width="357.9" height="355.4" maskUnits="userSpaceOnUse">
      <g id="mask0_11258_752">
        <rect class="st38" x="156.4" width="57.1" height="70"/>
      </g>
    </mask>
    <mask id="mask-1" x="-144.4" y="-142.7" width="346.1" height="355.4" maskUnits="userSpaceOnUse">
      <g id="mask1_11258_752">
        <path class="st63" d="M28.7-142.7c95.6,0,173,79.6,173,177.7S124.2,212.7,28.7,212.7c-95.6,0-173-79.6-173-177.7S-66.9-142.7,28.7-142.7ZM28.7-122.7c-84.8,0-153.5,70.6-153.5,157.7,0,87.1,68.7,157.6,153.5,157.6S182.2,122.1,182.2,35,113.5-122.7,28.7-122.7Z"/>
      </g>
    </mask>
    <radialGradient id="radial-gradient" cx="-556.2" cy="579.2" fx="-556.2" fy="579.2" r="1" gradientTransform="translate(-100197.3 98854.1) rotate(90) scale(177.7 -173)" gradientUnits="userSpaceOnUse">
      <stop offset=".8" stop-color="#fff" stop-opacity="0"/>
      <stop offset=".9" stop-color="#fff"/>
      <stop offset=".9" stop-color="#fff" stop-opacity=".5"/>
      <stop offset="1" stop-color="#fff" stop-opacity=".2"/>
      <stop offset="1" stop-color="#fff" stop-opacity="0"/>
      <stop offset="1" stop-color="#fff" stop-opacity="0"/>
    </radialGradient>
    <mask id="mask-2" x="-61" y="-142.7" width="357.8" height="355.4" maskUnits="userSpaceOnUse">
      <g id="mask2_11258_752">
        <rect class="st38" x="239.6" width="57.1" height="70"/>
      </g>
    </mask>
    <mask id="mask-3" x="-61" y="-142.7" width="346.1" height="355.4" maskUnits="userSpaceOnUse">
      <g id="mask3_11258_752">
        <path class="st63" d="M112-142.7c95.6,0,173,79.6,173,177.7s-77.5,177.7-173,177.7c-95.6,0-173-79.6-173-177.7,0-98.1,77.5-177.7,173-177.7ZM112-122.7C27.2-122.7-41.5-52.1-41.5,35c0,87.1,68.7,157.6,153.5,157.6s153.5-70.6,153.5-157.6S196.8-122.7,112-122.7Z"/>
      </g>
    </mask>
    <radialGradient id="radial-gradient1" cx="-556.2" cy="579.2" fx="-556.2" fy="579.2" r="1" gradientTransform="translate(-100114 98854.1) rotate(90) scale(177.7 -173)" gradientUnits="userSpaceOnUse">
      <stop offset=".8" stop-color="#fff" stop-opacity="0"/>
      <stop offset=".9" stop-color="#fff"/>
      <stop offset=".9" stop-color="#fff" stop-opacity=".5"/>
      <stop offset="1" stop-color="#fff" stop-opacity=".2"/>
      <stop offset="1" stop-color="#fff" stop-opacity="0"/>
      <stop offset="1" stop-color="#fff" stop-opacity="0"/>
    </radialGradient>
    <mask id="mask-4" x="22.3" y="-142.7" width="357.6" height="355.4" maskUnits="userSpaceOnUse">
      <g id="mask4_11258_752">
        <rect class="st38" x="322.8" width="57.1" height="70"/>
      </g>
    </mask>
    <mask id="mask-5" x="22.3" y="-142.7" width="346.1" height="355.4" maskUnits="userSpaceOnUse">
      <g id="mask5_11258_752">
        <path class="st63" d="M195.4-142.7c95.6,0,173,79.6,173,177.7s-77.5,177.7-173,177.7c-95.6,0-173-79.6-173-177.7,0-98.1,77.5-177.7,173-177.7ZM195.4-122.7c-84.8,0-153.5,70.6-153.5,157.7,0,87.1,68.7,157.6,153.5,157.6s153.5-70.6,153.5-157.6-68.7-157.7-153.5-157.7Z"/>
      </g>
    </mask>
    <radialGradient id="radial-gradient2" cx="-556.2" cy="579.2" fx="-556.2" fy="579.2" r="1" gradientTransform="translate(-100030.6 98854.1) rotate(90) scale(177.7 -173)" gradientUnits="userSpaceOnUse">
      <stop offset=".8" stop-color="#fff" stop-opacity="0"/>
      <stop offset=".9" stop-color="#fff"/>
      <stop offset=".9" stop-color="#fff" stop-opacity=".5"/>
      <stop offset="1" stop-color="#fff" stop-opacity=".2"/>
      <stop offset="1" stop-color="#fff" stop-opacity="0"/>
      <stop offset="1" stop-color="#fff" stop-opacity="0"/>
    </radialGradient>
    <mask id="mask-6" x="105.7" y="-142.7" width="358.5" height="355.4" maskUnits="userSpaceOnUse">
      <g id="mask6_11258_752">
        <rect class="st38" x="406" width="58.1" height="70"/>
      </g>
    </mask>
    <mask id="mask-7" x="105.7" y="-142.7" width="346.1" height="355.4" maskUnits="userSpaceOnUse">
      <g id="mask7_11258_752">
        <path class="st63" d="M278.7-142.7c95.6,0,173,79.6,173,177.7s-77.5,177.7-173,177.7c-95.6,0-173-79.6-173-177.7s77.5-177.7,173-177.7ZM278.7-122.7c-84.8,0-153.5,70.6-153.5,157.7s68.7,157.6,153.5,157.6,153.5-70.6,153.5-157.6-68.7-157.7-153.5-157.7Z"/>
      </g>
    </mask>
    <radialGradient id="radial-gradient3" cx="-556.2" cy="579.2" fx="-556.2" fy="579.2" r="1" gradientTransform="translate(-99947.3 98854.1) rotate(90) scale(177.7 -173)" gradientUnits="userSpaceOnUse">
      <stop offset=".8" stop-color="#fff" stop-opacity="0"/>
      <stop offset=".9" stop-color="#fff"/>
      <stop offset=".9" stop-color="#fff" stop-opacity=".5"/>
      <stop offset="1" stop-color="#fff" stop-opacity=".2"/>
      <stop offset="1" stop-color="#fff" stop-opacity="0"/>
      <stop offset="1" stop-color="#fff" stop-opacity="0"/>
    </radialGradient>
    <mask id="mask-8" x="189" y="-142.7" width="358.3" height="355.4" maskUnits="userSpaceOnUse">
      <g id="mask8_11258_752">
        <rect class="st38" x="490.2" width="57.1" height="70"/>
      </g>
    </mask>
    <mask id="mask-9" x="189" y="-142.7" width="346.1" height="355.4" maskUnits="userSpaceOnUse">
      <g id="mask9_11258_752">
        <path class="st63" d="M362.1-142.7c95.6,0,173,79.6,173,177.7s-77.5,177.7-173,177.7c-95.6,0-173-79.6-173-177.7s77.5-177.7,173-177.7ZM362.1-122.7c-84.8,0-153.5,70.6-153.5,157.7,0,87.1,68.7,157.6,153.5,157.6s153.5-70.6,153.5-157.6-68.7-157.7-153.5-157.7Z"/>
      </g>
    </mask>
    <radialGradient id="radial-gradient4" cx="-556.2" cy="579.2" fx="-556.2" fy="579.2" r="1" gradientTransform="translate(-99863.9 98854.1) rotate(90) scale(177.7 -173)" gradientUnits="userSpaceOnUse">
      <stop offset=".8" stop-color="#fff" stop-opacity="0"/>
      <stop offset=".9" stop-color="#fff"/>
      <stop offset=".9" stop-color="#fff" stop-opacity=".5"/>
      <stop offset="1" stop-color="#fff" stop-opacity=".2"/>
      <stop offset="1" stop-color="#fff" stop-opacity="0"/>
      <stop offset="1" stop-color="#fff" stop-opacity="0"/>
    </radialGradient>
    <mask id="mask-10" x="272.4" y="-142.7" width="358.2" height="355.4" maskUnits="userSpaceOnUse">
      <g id="mask10_11258_752">
        <rect class="st38" x="573.4" width="57.1" height="70"/>
      </g>
    </mask>
    <mask id="mask-11" x="272.4" y="-142.7" width="346.1" height="355.4" maskUnits="userSpaceOnUse">
      <g id="mask11_11258_752">
        <path class="st63" d="M445.4-142.7c95.6,0,173,79.6,173,177.7s-77.5,177.7-173,177.7c-95.6,0-173-79.6-173-177.7s77.5-177.7,173-177.7ZM445.4-122.7c-84.8,0-153.5,70.6-153.5,157.7s68.7,157.6,153.5,157.6,153.5-70.6,153.5-157.6-68.7-157.7-153.5-157.7Z"/>
      </g>
    </mask>
    <radialGradient id="radial-gradient5" cx="-556.2" cy="579.2" fx="-556.2" fy="579.2" r="1" gradientTransform="translate(-99780.6 98854.1) rotate(90) scale(177.7 -173)" gradientUnits="userSpaceOnUse">
      <stop offset=".8" stop-color="#fff" stop-opacity="0"/>
      <stop offset=".9" stop-color="#fff"/>
      <stop offset=".9" stop-color="#fff" stop-opacity=".5"/>
      <stop offset="1" stop-color="#fff" stop-opacity=".2"/>
      <stop offset="1" stop-color="#fff" stop-opacity="0"/>
      <stop offset="1" stop-color="#fff" stop-opacity="0"/>
    </radialGradient>
    <mask id="mask-12" x="355.8" y="-142.7" width="358" height="355.4" maskUnits="userSpaceOnUse">
      <g id="mask12_11258_752">
        <rect class="st38" x="656.6" width="57.1" height="70"/>
      </g>
    </mask>
    <mask id="mask-13" x="355.8" y="-142.7" width="346.1" height="355.4" maskUnits="userSpaceOnUse">
      <g id="mask13_11258_752">
        <path class="st63" d="M528.8-142.7c95.6,0,173,79.6,173,177.7s-77.5,177.7-173,177.7c-95.6,0-173-79.6-173-177.7s77.5-177.7,173-177.7ZM528.8-122.7c-84.8,0-153.5,70.6-153.5,157.7s68.7,157.6,153.5,157.6,153.5-70.6,153.5-157.6-68.7-157.7-153.5-157.7Z"/>
      </g>
    </mask>
    <radialGradient id="radial-gradient6" cx="-556.2" cy="579.2" fx="-556.2" fy="579.2" r="1" gradientTransform="translate(-99697.2 98854.1) rotate(90) scale(177.7 -173)" gradientUnits="userSpaceOnUse">
      <stop offset=".8" stop-color="#fff" stop-opacity="0"/>
      <stop offset=".9" stop-color="#fff"/>
      <stop offset=".9" stop-color="#fff" stop-opacity=".5"/>
      <stop offset="1" stop-color="#fff" stop-opacity=".2"/>
      <stop offset="1" stop-color="#fff" stop-opacity="0"/>
      <stop offset="1" stop-color="#fff" stop-opacity="0"/>
    </radialGradient>
    <clipPath id="clippath-1">
      <rect class="st0" x="72.8" y="-110.1" width="138" height="290.1"/>
    </clipPath>
    <linearGradient id="linear-gradient1" x1="-70.7" y1="11.2" x2="164" y2="11.2" gradientTransform="translate(130.1 30) rotate(160.6)" gradientUnits="userSpaceOnUse">
      <stop offset="0" stop-color="aqua"/>
      <stop offset="0" stop-color="#09f"/>
      <stop offset=".2" stop-color="#0040ff"/>
      <stop offset=".2" stop-color="#431eff"/>
      <stop offset=".3" stop-color="#8000ff"/>
      <stop offset=".4" stop-color="#c100de"/>
      <stop offset=".5" stop-color="#ff00bf"/>
      <stop offset=".6" stop-color="#ff005f"/>
      <stop offset=".6" stop-color="#ff005b"/>
      <stop offset=".7" stop-color="#ff0050"/>
      <stop offset=".7" stop-color="#ff003f"/>
      <stop offset=".7" stop-color="#ff0025"/>
      <stop offset=".7" stop-color="#ff0005"/>
      <stop offset=".7" stop-color="red"/>
      <stop offset=".8" stop-color="#ff9700"/>
      <stop offset=".9" stop-color="#ff9700"/>
      <stop offset="1" stop-color="#f8cd39"/>
    </linearGradient>
    <linearGradient id="linear-gradient2" x1="-68.7" x2="162" xlink:href="#linear-gradient1"/>
    <linearGradient id="linear-gradient3" x1="-65.7" y1="11.2" x2="159" y2="11.2" xlink:href="#linear-gradient1"/>
    <linearGradient id="linear-gradient4" x1="-64.7" y1="11.2" x2="158" y2="11.2" xlink:href="#linear-gradient1"/>
    <linearGradient id="linear-gradient5" x1="-63.7" y1="11.2" x2="157" y2="11.2" xlink:href="#linear-gradient1"/>
    <clipPath id="clippath-2">
      <rect class="st0" x="138.4" y="-111.1" width="139" height="292.2"/>
    </clipPath>
    <linearGradient id="linear-gradient6" x1="-51.6" y1="-48.6" x2="184.6" y2="-48.6" gradientTransform="translate(216 81.5) rotate(-109.4)" xlink:href="#linear-gradient1"/>
    <linearGradient id="linear-gradient7" x1="-49.6" y1="-48.6" x2="182.6" y2="-48.6" gradientTransform="translate(216 81.5) rotate(-109.4)" xlink:href="#linear-gradient1"/>
    <linearGradient id="linear-gradient8" x1="-48.6" y1="-48.6" x2="181.6" y2="-48.6" gradientTransform="translate(216 81.5) rotate(-109.4)" xlink:href="#linear-gradient1"/>
    <linearGradient id="linear-gradient9" x1="-47.6" y1="-48.6" x2="180.6" y2="-48.6" gradientTransform="translate(216 81.5) rotate(-109.4)" xlink:href="#linear-gradient1"/>
    <linearGradient id="linear-gradient10" x1="-45.6" y1="-48.6" x2="178.6" y2="-48.6" gradientTransform="translate(216 81.5) rotate(-109.4)" xlink:href="#linear-gradient1"/>
    <clipPath id="clippath-3">
      <rect class="st0" x="206" y="-115.8" width="143.4" height="301.6"/>
    </clipPath>
    <linearGradient id="linear-gradient11" x1="-27.7" y1="-112.8" x2="215.2" y2="-112.8" gradientTransform="translate(353.5 85.8) rotate(-109.4)" xlink:href="#linear-gradient1"/>
    <linearGradient id="linear-gradient12" x1="-25.7" y1="-112.8" x2="213.2" y2="-112.8" gradientTransform="translate(353.5 85.8) rotate(-109.4)" xlink:href="#linear-gradient1"/>
    <linearGradient id="linear-gradient13" x1="-24.7" y1="-112.8" x2="212.2" y2="-112.8" gradientTransform="translate(353.5 85.8) rotate(-109.4)" xlink:href="#linear-gradient1"/>
    <linearGradient id="linear-gradient14" x1="-23.7" y1="-112.8" x2="211.2" y2="-112.8" gradientTransform="translate(353.5 85.8) rotate(-109.4)" xlink:href="#linear-gradient1"/>
    <linearGradient id="linear-gradient15" x1="-21.7" y1="-112.8" x2="209.2" y2="-112.8" gradientTransform="translate(353.5 85.8) rotate(-109.4)" xlink:href="#linear-gradient1"/>
    <clipPath id="clippath-4">
      <rect class="st0" x="282.2" y="-115.8" width="143.4" height="301.6"/>
    </clipPath>
    <linearGradient id="linear-gradient16" x1="-5.6" y1="-186.5" x2="237.4" y2="-186.5" gradientTransform="translate(506.6 82.2) rotate(-109.4)" xlink:href="#linear-gradient1"/>
    <linearGradient id="linear-gradient17" x1="-3.6" y1="-186.5" x2="235.4" y2="-186.5" gradientTransform="translate(506.6 82.2) rotate(-109.4)" xlink:href="#linear-gradient1"/>
    <linearGradient id="linear-gradient18" x1="-2.6" y1="-186.5" x2="234.4" y2="-186.5" gradientTransform="translate(506.6 82.2) rotate(-109.4)" xlink:href="#linear-gradient1"/>
    <linearGradient id="linear-gradient19" x1="-1.6" y1="-186.5" x2="233.4" y2="-186.5" gradientTransform="translate(506.6 82.2) rotate(-109.4)" xlink:href="#linear-gradient1"/>
    <linearGradient id="linear-gradient20" x1=".4" y1="-186.5" x2="231.4" y2="-186.5" gradientTransform="translate(506.6 82.2) rotate(-109.4)" xlink:href="#linear-gradient1"/>
    <clipPath id="clippath-5">
      <rect class="st0" x="363.3" y="-115.8" width="143.4" height="301.6"/>
    </clipPath>
    <linearGradient id="linear-gradient21" x1="6.5" y1="-254.2" x2="249.5" y2="-254.2" gradientTransform="translate(655.6 71.1) rotate(-109.4)" xlink:href="#linear-gradient1"/>
    <linearGradient id="linear-gradient22" x1="8.5" y1="-254.2" x2="247.5" y2="-254.2" gradientTransform="translate(655.6 71.1) rotate(-109.4)" xlink:href="#linear-gradient1"/>
    <linearGradient id="linear-gradient23" x1="9.5" y1="-254.2" x2="246.5" y2="-254.2" gradientTransform="translate(655.6 71.1) rotate(-109.4)" xlink:href="#linear-gradient1"/>
    <linearGradient id="linear-gradient24" x1="10.5" y1="-254.2" x2="245.5" y2="-254.2" gradientTransform="translate(655.6 71.1) rotate(-109.4)" xlink:href="#linear-gradient1"/>
    <linearGradient id="linear-gradient25" x1="12.5" y1="-254.2" x2="243.5" y2="-254.2" gradientTransform="translate(655.6 71.1) rotate(-109.4)" xlink:href="#linear-gradient1"/>
    <clipPath id="clippath-6">
      <rect class="st0" x="453.4" y="-115.8" width="143.4" height="301.6"/>
    </clipPath>
    <linearGradient id="linear-gradient26" x1="10.5" y1="-309.9" x2="253.4" y2="-309.9" gradientTransform="translate(798.5 .9) rotate(-118.9)" xlink:href="#linear-gradient1"/>
    <linearGradient id="linear-gradient27" x1="12.5" y1="-309.9" x2="251.4" y2="-309.9" gradientTransform="translate(798.5 .9) rotate(-118.9)" xlink:href="#linear-gradient1"/>
    <linearGradient id="linear-gradient28" x1="13.5" y1="-309.9" x2="250.4" y2="-309.9" gradientTransform="translate(798.5 .9) rotate(-118.9)" xlink:href="#linear-gradient1"/>
    <linearGradient id="linear-gradient29" x1="14.5" y1="-309.9" x2="249.4" y2="-309.9" gradientTransform="translate(798.5 .9) rotate(-118.9)" xlink:href="#linear-gradient1"/>
    <linearGradient id="linear-gradient30" x1="16.5" y1="-309.9" x2="247.4" y2="-309.9" gradientTransform="translate(798.5 .9) rotate(-118.9)" xlink:href="#linear-gradient1"/>
  </defs>
  <g class="st80">
    <g>
      <path class="st40" d="M0,8.2C0,3.7,3.6,0,8,0h784.1c4.4,0,8,3.7,8,8.2v53.5c0,4.5-3.6,8.2-8,8.2H8c-4.4,0-8-3.7-8-8.2V8.2Z"/>
      <g class="st42">
        <g class="st37">
          <g class="st54">
            <ellipse class="st39" cx="28.7" cy="35" rx="173" ry="177.7"/>
          </g>
        </g>
      </g>
      <g class="st41">
        <g class="st48">
          <g class="st49">
            <ellipse class="st70" cx="112" cy="35" rx="173" ry="177.7"/>
          </g>
        </g>
      </g>
      <g class="st44">
        <g class="st50">
          <g class="st51">
            <ellipse class="st73" cx="195.4" cy="35" rx="173" ry="177.7"/>
          </g>
        </g>
      </g>
      <g class="st43">
        <g class="st53">
          <g class="st52">
            <ellipse class="st72" cx="278.7" cy="35" rx="173" ry="177.7"/>
          </g>
        </g>
      </g>
      <g class="st45">
        <g class="st56">
          <g class="st55">
            <ellipse class="st75" cx="362.1" cy="35" rx="173" ry="177.7"/>
          </g>
        </g>
      </g>
      <g class="st46">
        <g class="st76">
          <g class="st77">
            <ellipse class="st74" cx="445.4" cy="35" rx="173" ry="177.7"/>
          </g>
        </g>
      </g>
      <g class="st47">
        <g class="st79">
          <g class="st78">
            <ellipse class="st71" cx="528.8" cy="35" rx="173" ry="177.7"/>
          </g>
        </g>
      </g>
      <g>
        <path class="st63" d="M121.3,22.5c-1.4,0-2.6,1-3,2.4-1.6-1.9-4-3.1-7.3-3.1-6.3,0-11.6,5.8-11.6,13.2s5.2,13.2,11.6,13.2,5.7-1.1,7.3-3.1c.4,1.4,1.6,2.4,3,2.4h4.1v-25h-4.1ZM112.3,40.9c-3.1,0-5.6-2.4-5.6-5.9s2.4-5.9,5.6-5.9,5.6,2.4,5.6,5.9-2.4,5.9-5.6,5.9Z"/>
        <path class="st63" d="M91.6,38.1c-.9,1.8-2.7,2.8-4.8,2.8-3.1,0-5.6-2.4-5.6-5.9s2.4-5.9,5.6-5.9,3.8,1,4.8,2.8l6.2-3.7c-2.2-3.8-6.3-6.3-11-6.3-7.1,0-12.8,5.8-12.8,13.2s5.7,13.2,12.8,13.2,8.8-2.5,11-6.4l-6.2-3.7h0Z"/>
        <path class="st63" d="M72,22v8.5c-3-.5-7.3.8-7.3,5.7v11.3h-7.3v-25h4.1c1.4,0,2.6,1,3,2.4,1.8-1.8,4.4-2.8,7-2.9h.4Z"/>
        <path class="st63" d="M41.9,21.8c-1.4,0-2.7.2-4,.6.8.7,1.5,1.5,2.1,2.5.8,1.2,1.4,2.6,1.8,4.1h0c3.1,0,5.6,2.3,5.6,5.9s-2.5,5.9-5.6,5.9h0c-.5,1.6-1.2,3.1-2,4.4-.6.9-1.2,1.6-1.9,2.3,1.2.4,2.6.6,3.9.6,7.1,0,12.8-5.9,12.8-13.2s-5.8-13.2-12.8-13.2h0Z"/>
        <path class="st63" d="M34.1,26.1c1.4,1.4,2.4,3.6,2.9,6,.7-1.4,1.9-2.4,3.3-2.9-.4-1.3-.9-2.4-1.6-3.4-.7-1.1-1.6-2-2.5-2.7-1.1.6-2.1,1.3-3.1,2.2.3.2.6.5.9.8h0Z"/>
        <path class="st63" d="M40.3,40.6c-1.4-.4-2.6-1.4-3.3-2.8-.3,1.7-.8,3.3-1.6,4.6-.6,1-1.3,1.8-2.1,2.3.9.8,1.9,1.5,3,2,.8-.6,1.6-1.4,2.3-2.5.7-1.1,1.3-2.4,1.7-3.8Z"/>
        <path class="st63" d="M35.7,35c0-3.3-1-6.2-2.7-7.9-.3-.3-.6-.6-.9-.8-.8.9-1.4,1.9-1.9,3,1.2,1.2,2,3.2,2,5.7s-.8,4.5-1.9,5.6c.5,1.1,1.2,2.2,2,3.1.7-.4,1.4-1.1,1.9-2.1,1.1-1.8,1.7-4.2,1.6-6.7Z"/>
        <path class="st63" d="M29.2,30.5c-.5,1.4-.7,2.9-.7,4.4s.3,3.1.8,4.5c.8-1,1.3-2.6,1.3-4.4s-.5-3.5-1.3-4.4h0Z"/>
      </g>
      <path class="st63" d="M763,48.3v-10.6h4.7c3.4,0,5.7,2.1,5.7,5.3s-2.3,5.3-5.7,5.3h-4.7ZM765.4,46.2h2.2c2,0,3.4-1.3,3.4-3.3s-1.3-3.3-3.4-3.3h-2.2v6.6Z"/>
      <path class="st63" d="M756,48.4c-2.9,0-4.6-1.7-4.6-4.9v-5.9h2.4v5.9c0,2,.8,2.9,2.3,2.9s2.3-.8,2.3-2.9v-5.9h2.3v5.9c0,3.1-1.7,4.9-4.6,4.9Z"/>
      <path class="st63" d="M744.1,48.4c-3.2,0-5.6-2.3-5.6-5.5s2.4-5.5,5.6-5.5,5.6,2.3,5.6,5.5-2.4,5.5-5.6,5.5ZM744.1,46.4c1.8,0,3.2-1.4,3.2-3.4s-1.4-3.4-3.2-3.4-3.2,1.4-3.2,3.4,1.4,3.4,3.2,3.4Z"/>
      <path class="st63" d="M730.4,48.3v-10.6h2.4v8.6h5.1v2h-7.5Z"/>
      <path class="st63" d="M724.6,48.4c-3.2,0-5.6-2.3-5.6-5.5s2.4-5.5,5.6-5.5,3.3.7,4.2,1.9l-1.5,1.5c-.7-.8-1.6-1.2-2.6-1.2-1.9,0-3.3,1.4-3.3,3.4s1.4,3.4,3.3,3.4,1.9-.4,2.6-1.3l1.5,1.5c-1,1.2-2.4,1.9-4.2,1.9Z"/>
      <path class="st63" d="M708,46.3h5.6v2h-7.9v-10.6h7.8v2h-5.4v2.3h4.8v1.9h-4.8v2.5Z"/>
      <path class="st63" d="M700.9,37.6h2.4v10.6h-2.4v-4.4h-4.7v4.4h-2.4v-10.6h2.4v4.2h4.7v-4.2Z"/>
      <path class="st63" d="M686.9,48.3v-8.6h-3.3v-2h8.9v2h-3.3v8.6h-2.4Z"/>
      <path class="st63" d="M675.8,37.6h2.3v10.6h-2l-5.1-6.4v6.4h-2.3v-10.6h2l5.1,6.4v-6.4Z"/>
      <path class="st63" d="M664,48.3v-10.6h2.4v10.6h-2.4Z"/>
      <path class="st63" d="M774,21.5l-4,6.9v3.8h-2.4v-3.8l-4-6.8h2.5l2.7,4.7,2.7-4.7h2.3Z"/>
      <path class="st63" d="M757.3,32.1v-10.6h2.4v8.6h5.1v2h-7.5Z"/>
      <path class="st63" d="M749.8,30.2h5.6v2h-7.9v-10.6h7.8v2h-5.4v2.3h4.8v1.9h-4.8v2.5Z"/>
      <path class="st63" d="M745.8,32.1h-2.6l-2-3h-2.2v3h-2.4v-10.6h4.4c2.7,0,4.5,1.5,4.5,3.9s-.8,2.8-2.1,3.4l2.3,3.4ZM743.2,25.4c0-1.2-.7-1.9-2.2-1.9h-1.9v3.7h1.9c1.5,0,2.2-.7,2.2-1.9Z"/>
      <path class="st63" d="M729.7,32.3c-2.9,0-4.6-1.7-4.6-4.9v-5.9h2.4v5.9c0,2,.9,2.9,2.3,2.9s2.3-.8,2.3-2.9v-5.9h2.3v5.9c0,3.1-1.7,4.9-4.6,4.9Z"/>
      <path class="st63" d="M719.4,32.3c-3.2,0-5.6-2.3-5.6-5.5s2.4-5.5,5.6-5.5,3.3.7,4.2,1.9l-1.5,1.5c-.7-.8-1.6-1.2-2.6-1.2-1.9,0-3.3,1.4-3.3,3.4s1.4,3.4,3.3,3.4,1.9-.4,2.6-1.3l1.5,1.5c-1,1.2-2.4,1.9-4.2,1.9Z"/>
      <path class="st63" d="M707,30.2h5.6v2h-7.9v-10.6h7.8v2h-5.4v2.3h4.8v1.9h-4.8v2.5Z"/>
      <path class="st63" d="M698.7,32.3c-1.6,0-3.3-.5-4.2-1.2l.8-1.9c.9.7,2.2,1.1,3.4,1.1s2-.5,2-1.1c0-2-6-.6-6-4.6s1.4-3.3,4.3-3.3,2.6.3,3.6.9l-.7,1.9c-1-.6-1.9-.8-2.8-.8-1.4,0-1.9.5-1.9,1.2,0,2,6,.6,6,4.5s-1.4,3.3-4.4,3.3Z"/>
      <path class="st63" d="M683.7,30.2h5.6v2h-7.9v-10.6h7.8v2h-5.4v2.3h4.8v1.9h-4.8v2.5Z"/>
      <path class="st63" d="M678.1,21.5h2.4l-4.4,10.6h-2.3l-4.4-10.6h2.6l3.1,7.6,3.2-7.6Z"/>
      <path class="st63" d="M665.8,32.1v-10.6h2.4v10.6h-2.4Z"/>
      <path class="st63" d="M664.1,32.1h-2.6l-2-3h-2.2v3h-2.4v-10.6h4.4c2.7,0,4.5,1.5,4.5,3.9s-.8,2.8-2.1,3.4l2.3,3.4ZM661.5,25.4c0-1.2-.7-1.9-2.2-1.9h-1.9v3.7h1.9c1.5,0,2.2-.7,2.2-1.9Z"/>
      <path class="st63" d="M650.3,21.5h2.4v10.6h-2.4v-4.4h-4.7v4.4h-2.4v-10.6h2.4v4.2h4.7v-4.2Z"/>
      <path class="st63" d="M636.3,32.1v-8.6h-3.3v-2h8.9v2h-3.3v8.6h-2.4Z"/>
      <g class="st66">
        <g class="st57">
          <g>
            <circle class="st20" cx="82.4" cy="35" r="105.3"/>
            <circle class="st31" cx="82.4" cy="35" r="105.3"/>
            <circle class="st33" cx="82.4" cy="35" r="105.3"/>
            <circle class="st36" cx="82.4" cy="35" r="105.3"/>
            <circle class="st29" cx="82.4" cy="35" r="105.3"/>
            <circle class="st30" cx="82.4" cy="35" r="105.3"/>
            <circle class="st23" cx="82.4" cy="35" r="105.3"/>
            <circle class="st22" cx="82.4" cy="35" r="105.3"/>
            <circle class="st24" cx="82.4" cy="35" r="105.3"/>
            <circle class="st19" cx="82.4" cy="35" r="105.3"/>
          </g>
        </g>
      </g>
      <g class="st64">
        <g class="st60">
          <g>
            <circle class="st21" cx="148" cy="35" r="106.1" transform="translate(81.7 171.8) rotate(-77.4)"/>
            <circle class="st32" cx="148" cy="35" r="106.1" transform="translate(81.7 171.8) rotate(-77.4)"/>
            <circle class="st34" cx="148" cy="35" r="106.1" transform="translate(81.7 171.8) rotate(-77.4)"/>
            <circle class="st35" cx="148" cy="35" r="106.1" transform="translate(81.7 171.8) rotate(-77.4)"/>
            <circle class="st14" cx="148" cy="35" r="106.1" transform="translate(81.7 171.8) rotate(-77.4)"/>
            <circle class="st30" cx="148" cy="35" r="106.1" transform="translate(81.7 171.8) rotate(-77.4)"/>
            <circle class="st23" cx="148" cy="35" r="106.1" transform="translate(81.7 171.8) rotate(-77.4)"/>
            <circle class="st22" cx="148" cy="35" r="106.1" transform="translate(81.7 171.8) rotate(-77.4)"/>
            <circle class="st24" cx="148" cy="35" r="106.1" transform="translate(81.7 171.8) rotate(-77.4)"/>
            <circle class="st18" cx="148" cy="35" r="106.1" transform="translate(81.7 171.8) rotate(-77.4)"/>
          </g>
        </g>
      </g>
      <g class="st68">
        <g class="st58">
          <g>
            <circle class="st27" cx="216" cy="35" r="109.5" transform="translate(174.6 249.8) rotate(-88.3)"/>
            <circle class="st11" cx="216" cy="35" r="109.5" transform="translate(174.6 249.8) rotate(-88.3)"/>
            <circle class="st3" cx="216" cy="35" r="109.5" transform="translate(174.6 249.8) rotate(-88.3)"/>
            <circle class="st6" cx="216" cy="35" r="109.5" transform="translate(174.6 249.8) rotate(-88.3)"/>
            <circle class="st13" cx="216" cy="35" r="109.5" transform="translate(174.6 249.8) rotate(-88.3)"/>
            <circle class="st30" cx="216" cy="35" r="109.5" transform="translate(174.6 249.8) rotate(-88.3)"/>
            <circle class="st23" cx="216" cy="35" r="109.5" transform="translate(174.6 249.8) rotate(-88.3)"/>
            <circle class="st22" cx="216" cy="35" r="109.5" transform="translate(174.6 249.8) rotate(-88.3)"/>
            <circle class="st24" cx="216" cy="35" r="109.5" transform="translate(174.6 249.8) rotate(-88.3)"/>
            <circle class="st18" cx="216" cy="35" r="109.5" transform="translate(174.6 249.8) rotate(-88.3)"/>
          </g>
        </g>
      </g>
      <g class="st67">
        <g class="st59">
          <g>
            <circle class="st26" cx="292.2" cy="35" r="109.5" transform="translate(245.4 325.5) rotate(-87.7)"/>
            <circle class="st10" cx="292.2" cy="35" r="109.5" transform="translate(245.4 325.5) rotate(-87.7)"/>
            <circle class="st2" cx="292.2" cy="35" r="109.5" transform="translate(245.4 325.5) rotate(-87.7)"/>
            <circle class="st5" cx="292.2" cy="35" r="109.5" transform="translate(245.4 325.5) rotate(-87.7)"/>
            <circle class="st15" cx="292.2" cy="35" r="109.5" transform="translate(245.4 325.5) rotate(-87.7)"/>
            <circle class="st30" cx="292.2" cy="35" r="109.5" transform="translate(245.4 325.5) rotate(-87.7)"/>
            <circle class="st23" cx="292.2" cy="35" r="109.5" transform="translate(245.4 325.5) rotate(-87.7)"/>
            <circle class="st22" cx="292.2" cy="35" r="109.5" transform="translate(245.4 325.5) rotate(-87.7)"/>
            <circle class="st24" cx="292.2" cy="35" r="109.5" transform="translate(245.4 325.5) rotate(-87.7)"/>
            <circle class="st18" cx="292.2" cy="35" r="109.5" transform="translate(245.4 325.5) rotate(-87.7)"/>
          </g>
        </g>
      </g>
      <g class="st69">
        <g class="st62">
          <g>
            <circle class="st25" cx="373.3" cy="35" r="109.5" transform="translate(270.8 395.6) rotate(-79.5)"/>
            <circle class="st12" cx="373.3" cy="35" r="109.5" transform="translate(270.8 395.6) rotate(-79.5)"/>
            <circle class="st4" cx="373.3" cy="35" r="109.5" transform="translate(270.8 395.6) rotate(-79.5)"/>
            <circle class="st8" cx="373.3" cy="35" r="109.5" transform="translate(270.8 395.6) rotate(-79.5)"/>
            <circle class="st16" cx="373.3" cy="35" r="109.5" transform="translate(270.8 395.6) rotate(-79.5)"/>
            <circle class="st30" cx="373.3" cy="35" r="109.5" transform="translate(270.8 395.6) rotate(-79.5)"/>
            <circle class="st23" cx="373.3" cy="35" r="109.5" transform="translate(270.8 395.6) rotate(-79.5)"/>
            <circle class="st22" cx="373.3" cy="35" r="109.5" transform="translate(270.8 395.6) rotate(-79.5)"/>
            <circle class="st24" cx="373.3" cy="35" r="109.5" transform="translate(270.8 395.6) rotate(-79.5)"/>
            <circle class="st18" cx="373.3" cy="35" r="109.5" transform="translate(270.8 395.6) rotate(-79.5)"/>
          </g>
        </g>
      </g>
      <g class="st65">
        <g class="st61">
          <g>
            <circle class="st28" cx="463.4" cy="35" r="109.5" transform="translate(111 337.9) rotate(-45)"/>
            <circle class="st9" cx="463.4" cy="35" r="109.5" transform="translate(111 337.9) rotate(-45)"/>
            <circle class="st1" cx="463.4" cy="35" r="109.5" transform="translate(111 337.9) rotate(-45)"/>
            <circle class="st7" cx="463.4" cy="35" r="109.5" transform="translate(111 337.9) rotate(-45)"/>
            <circle class="st17" cx="463.4" cy="35" r="109.5" transform="translate(111 337.9) rotate(-45)"/>
            <circle class="st30" cx="463.4" cy="35" r="109.5" transform="translate(111 337.9) rotate(-45)"/>
            <circle class="st23" cx="463.4" cy="35" r="109.5" transform="translate(111 337.9) rotate(-45)"/>
            <circle class="st22" cx="463.4" cy="35" r="109.5" transform="translate(111 337.9) rotate(-45)"/>
            <circle class="st24" cx="463.4" cy="35" r="109.5" transform="translate(111 337.9) rotate(-45)"/>
            <circle class="st18" cx="463.4" cy="35" r="109.5" transform="translate(111 337.9) rotate(-45)"/>
          </g>
        </g>
      </g>
    </g>
  </g>
</svg>